<svg width="57" height="62" viewBox="0 0 57 62" fill="none" xmlns="http://www.w3.org/2000/svg">
<g clip-path="url(#clip0)">
<path d="M28.5 4C12.7599 4 0 17.8792 0 35C0 52.1208 12.7599 66 28.5 66C44.2401 66 57 52.1208 57 35C56.9822 17.8872 44.2327 4.01938 28.5 4ZM28.5 63.9333C13.8092 63.9333 1.9 50.9795 1.9 35C1.9 19.0205 13.8092 6.06667 28.5 6.06667C43.1908 6.06667 55.1 19.0205 55.1 35C55.0833 50.9718 43.1838 63.9151 28.5 63.9333Z" fill="#EEE7E7"/>
<path d="M28.5 8.13333C14.8586 8.13333 3.8 20.162 3.8 35C3.8 49.838 14.8586 61.8667 28.5 61.8667C42.1414 61.8667 53.2 49.838 53.2 35C53.1848 20.1688 42.1351 8.14986 28.5 8.13333ZM28.5 59.8C15.9079 59.8 5.7 48.6967 5.7 35C5.7 21.3033 15.9079 10.2 28.5 10.2C41.0921 10.2 51.3 21.3033 51.3 35C51.2854 48.69 41.086 59.7841 28.5 59.8Z" fill="#EEE7E7"/>
<path d="M10.45 33.9667H6.65V36.0333H10.45V33.9667Z" fill="#EEE7E7"/>
<path d="M50.35 33.9667H46.55V36.0333H50.35V33.9667Z" fill="#EEE7E7"/>
<path d="M12.3922 43.924L9.10106 45.9903L10.0509 47.7802L13.342 45.7139L12.3922 43.924Z" fill="#EEE7E7"/>
<path d="M46.9487 22.222L43.6575 24.2882L44.6073 26.0781L47.8985 24.0119L46.9487 22.222Z" fill="#EEE7E7"/>
<path d="M10.0519 22.2214L9.10205 24.0114L12.3932 26.0776L13.343 24.2877L10.0519 22.2214Z" fill="#EEE7E7"/>
<path d="M44.6079 43.9168L43.6581 45.7068L46.9493 47.773L47.8991 45.9831L44.6079 43.9168Z" fill="#EEE7E7"/>
<path d="M18.3944 13.9008L16.7488 14.9339L18.6484 18.5138L20.294 17.4807L18.3944 13.9008Z" fill="#EEE7E7"/>
<path d="M29.45 11.2333H27.55V15.3667H29.45V11.2333Z" fill="#EEE7E7"/>
<path d="M38.6012 13.8992L36.7015 17.4791L38.3471 18.5122L40.2467 14.9323L38.6012 13.8992Z" fill="#EEE7E7"/>
<path d="M7.63974 27.8497L7.14802 29.8459L9.90084 30.6482L10.3926 28.652L7.63974 27.8497Z" fill="#EEE7E7"/>
<path d="M47.092 39.3488L46.6003 41.345L49.3531 42.1473L49.8448 40.1511L47.092 39.3488Z" fill="#EEE7E7"/>
<path d="M13.7217 17.4635L12.3782 18.9249L14.3934 21.1169L15.7369 19.6555L13.7217 17.4635Z" fill="#EEE7E7"/>
<path d="M23.7581 11.7768L21.9229 12.3117L22.6605 15.306L24.4957 14.7711L23.7581 11.7768Z" fill="#EEE7E7"/>
<path d="M33.2357 11.7821L32.4982 14.7764L34.3334 15.3112L35.071 12.3169L33.2357 11.7821Z" fill="#EEE7E7"/>
<path d="M43.2784 17.4665L41.2631 19.6585L42.6066 21.1199L44.6219 18.9279L43.2784 17.4665Z" fill="#EEE7E7"/>
<path d="M49.3642 27.8499L46.6113 28.6522L47.103 30.6484L49.8559 29.8461L49.3642 27.8499Z" fill="#EEE7E7"/>
<path d="M9.90087 39.3504L7.14805 40.1527L7.63977 42.1489L10.3926 41.3466L9.90087 39.3504Z" fill="#EEE7E7"/>
<path d="M32.5307 17.9974C23.8932 15.5775 15.0877 21.2319 12.8628 30.627C11.8087 35.078 12.4005 39.8013 14.5112 43.7832C14.7872 44.2685 15.3728 44.4186 15.8189 44.1183C16.2462 43.8308 16.3938 43.231 16.1557 42.7499C12.2253 35.3334 14.5666 25.8555 21.385 21.5804C28.2034 17.3052 36.9169 19.8519 40.8473 27.2684C42.7094 30.7821 43.2312 34.9496 42.3008 38.877C42.1695 39.4299 42.4754 39.9939 42.9838 40.1366C43.4922 40.2793 44.0106 39.9466 44.1419 39.3936V39.3905C46.3666 29.9955 41.1681 20.4175 32.5307 17.9974Z" fill="#EEE7E7"/>
<path d="M42.4014 42.4669L31.9514 33.1669C31.9229 33.1479 31.8933 33.1306 31.863 33.1152C30.9093 31.0887 28.626 30.2868 26.763 31.3242C24.9 32.3615 24.1628 34.8451 25.1165 36.8715C25.7291 38.1732 26.9299 39.0245 28.272 39.1085L41.477 44.239C41.5806 44.2799 41.6899 44.3005 41.8 44.3C42.3246 44.2999 42.7499 43.8372 42.7499 43.2664C42.7498 42.9565 42.6219 42.6631 42.4014 42.4669ZM28.5 37.0667C27.4506 37.0667 26.6 36.1414 26.6 35C26.6 33.8586 27.4506 32.9333 28.5 32.9333C29.5494 32.9333 30.4 33.8586 30.4 35C30.4 36.1414 29.5494 37.0667 28.5 37.0667ZM31.0888 38.0091C31.614 37.4739 31.9878 36.7866 32.1661 36.0282L36.955 40.2845L31.0888 38.0091Z" fill="#EEE7E7"/>
<path d="M32.3 45.3333H24.7C22.0767 45.3333 19.95 47.6466 19.95 50.5C19.95 53.3534 22.0767 55.6667 24.7 55.6667H32.3C34.9233 55.6667 37.05 53.3534 37.05 50.5C37.05 47.6466 34.9233 45.3333 32.3 45.3333ZM32.3 53.6H24.7C23.126 53.6 21.85 52.2121 21.85 50.5C21.85 48.7879 23.126 47.4 24.7 47.4H32.3C33.874 47.4 35.15 48.7879 35.15 50.5C35.15 52.2121 33.874 53.6 32.3 53.6Z" fill="#EEE7E7"/>
<path d="M26.6 49.4667H24.7C24.1754 49.4667 23.75 49.9293 23.75 50.5C23.75 51.0707 24.1754 51.5333 24.7 51.5333H26.6C27.1246 51.5333 27.55 51.0707 27.55 50.5C27.55 49.9293 27.1246 49.4667 26.6 49.4667Z" fill="#EEE7E7"/>
<path d="M32.3 49.4667H30.4C29.8754 49.4667 29.45 49.9293 29.45 50.5C29.45 51.0707 29.8754 51.5333 30.4 51.5333H32.3C32.8246 51.5333 33.25 51.0707 33.25 50.5C33.25 49.9293 32.8246 49.4667 32.3 49.4667Z" fill="#EEE7E7"/>
</g>
<defs>
<clipPath id="clip0">
<rect width="57" height="62" fill="white"/>
</clipPath>
</defs>
</svg>
