<svg width="32" height="32" viewBox="0 0 32 32" fill="none" xmlns="http://www.w3.org/2000/svg">
<path d="M10.7706 17.5462C9.16973 17.5462 7.86731 19.3142 7.86731 21.4881C7.86731 23.6621 9.16973 25.4301 10.7706 25.4301C12.3715 25.4301 13.6739 23.6621 13.6739 21.4881C13.6739 19.3142 12.3715 17.5462 10.7706 17.5462ZM10.7706 24.1161C9.8102 24.1161 9.02863 22.9375 9.02863 21.4881C9.02863 20.0388 9.8102 18.8602 10.7706 18.8602C11.731 18.8602 12.5126 20.0388 12.5126 21.4881C12.5126 22.9375 11.7316 24.1161 10.7706 24.1161Z" fill="#F2994A"/>
<path d="M21.8032 17.5462C20.2023 17.5462 18.8999 19.3142 18.8999 21.4881C18.8999 23.6621 20.2023 25.4301 21.8032 25.4301C23.4041 25.4301 24.7065 23.6621 24.7065 21.4881C24.7065 19.3142 23.4041 17.5462 21.8032 17.5462ZM21.8032 24.1161C20.8428 24.1161 20.0612 22.9375 20.0612 21.4881C20.0612 20.0388 20.8428 18.8602 21.8032 18.8602C22.7636 18.8602 23.5452 20.0388 23.5452 21.4881C23.5452 22.9375 22.7642 24.1161 21.8032 24.1161Z" fill="#F2994A"/>
<path d="M22.6892 14.2613C22.6607 14.2613 22.6311 14.2613 22.6027 14.2619C22.065 14.2724 21.5267 14.2974 20.9884 14.3217C20.4984 14.344 20.0083 14.3664 19.5188 14.3775L18.6681 14.3979C17.1915 14.4327 15.6615 14.4682 14.1674 14.4616C13.4857 14.4584 12.8034 14.4295 12.1223 14.4005C11.1944 14.3611 10.2363 14.3191 9.28521 14.346C7.96537 14.3821 6.85515 14.8591 5.98416 15.7645C4.53773 17.2683 3.93965 19.2629 4.15624 21.8626C4.47095 25.6357 5.81693 27.5653 8.80269 28.5212C11.3129 29.3247 13.8341 29.397 15.9576 29.3628L16.6648 29.3668C16.9035 29.3687 17.1421 29.3714 17.3808 29.3714C17.6752 29.3714 17.9696 29.3681 18.264 29.3576C20.3515 29.282 22.1811 28.9292 23.8569 28.2775C25.697 27.5627 26.9222 26.1975 27.4971 24.2206C27.936 22.7095 28.065 21.2779 27.8913 19.8437C27.6086 17.5114 25.8102 14.2613 22.6892 14.2613ZM26.3944 23.8106C25.9328 25.3986 24.9793 26.453 23.4801 27.0351C21.9152 27.6428 20.197 27.9733 18.2274 28.0443C17.71 28.0626 17.1927 28.0574 16.6753 28.0534L15.95 28.0489C13.9032 28.0817 11.4859 28.0147 9.11973 27.2565C6.61301 26.4543 5.58118 24.9584 5.31291 21.7398C5.13291 19.577 5.60963 17.9391 6.76979 16.7322C7.42768 16.0489 8.28299 15.6882 9.31309 15.6593C10.2282 15.6357 11.1689 15.6744 12.0782 15.7132C12.7727 15.7428 13.4677 15.7723 14.1622 15.7756C15.6765 15.7835 17.2089 15.7467 18.6925 15.7112L19.542 15.6915C20.0396 15.6797 20.5373 15.6567 21.0349 15.6344C21.5639 15.6101 22.0929 15.5858 22.6218 15.5759C22.6427 15.5752 22.6636 15.5752 22.6845 15.5752C25.0827 15.5752 26.521 18.2177 26.7399 20.0237C26.8903 21.2549 26.7765 22.494 26.3944 23.8106Z" fill="#F2994A"/>
<path d="M30.1165 10.09C29.771 9.55197 29.6131 9.23531 29.6624 8.66044C29.7652 7.44961 29.6189 6.23089 29.4772 5.05291L29.4679 4.97538C29.2786 3.39598 28.914 1.88885 28.3838 0.49537L28.1951 0L27.3375 0.206295C26.1465 0.489457 24.9144 0.782475 23.7914 1.51633C23.0458 2.00382 22.3037 2.5235 21.5866 3.02544C21.1064 3.36182 20.6262 3.6982 20.1431 4.02603C20.1169 4.04377 20.0647 4.05823 20.0502 4.05823C17.4529 3.54512 14.7557 3.53986 12.0312 4.04312C11.9976 4.04969 11.8878 4.02866 11.8007 3.97019C11.5011 3.76718 11.209 3.54906 10.9175 3.3316C10.579 3.07865 10.2399 2.82637 9.8915 2.59577C8.22965 1.49202 6.3936 0.427043 4.22831 0.114316L3.80443 0.0525593L3.57855 0.606402C3.53617 0.707578 3.50017 0.794958 3.47055 0.885622C2.84924 2.78038 2.47472 4.76712 2.35336 6.85437C2.31097 7.57772 2.26742 8.32603 2.36149 9.07303C2.39284 9.32071 2.36671 9.37065 2.28136 9.49153C1.49921 10.5946 0.94003 11.7483 0.571311 13.0183C-0.0482547 15.1508 -0.160322 17.5153 0.217688 20.458C0.531245 22.9197 1.06487 24.716 1.94632 26.2809C3.80037 29.5711 6.66245 31.4245 10.4536 31.7898C12.3483 31.9724 14.2708 32 16.1557 32C16.561 32 16.9645 31.9987 17.3658 31.9974C17.8948 31.9954 18.4243 31.9941 18.9521 31.9954C21.3793 31.9967 23.3152 31.6393 25.0752 30.8595C28.2085 29.4726 30.2919 26.8893 31.2668 23.1806C31.8103 21.1143 32.0536 18.9174 31.9897 16.6494C31.9189 14.1227 31.2883 11.9158 30.1165 10.09ZM30.1542 22.8061C29.274 26.1521 27.4745 28.3866 24.6525 29.6362C23.0324 30.3542 21.244 30.6939 18.955 30.6814C18.4249 30.6801 17.8942 30.6814 17.3634 30.6834C15.1215 30.6906 12.8035 30.6978 10.5529 30.4804C7.0933 30.1473 4.5982 28.5423 2.92589 25.5746C2.13677 24.1746 1.65599 22.5387 1.36682 20.2694C1.01029 17.497 1.10552 15.3874 1.67457 13.4282C1.99916 12.3107 2.49388 11.2917 3.18719 10.3128C3.49087 9.88441 3.58436 9.47116 3.51062 8.8871C3.43339 8.27544 3.47345 7.59677 3.51526 6.87606C3.6221 5.03189 3.95715 3.21991 4.51052 1.49071C6.29024 1.8468 7.86267 2.77118 9.30271 3.72776C9.63369 3.94719 9.95537 4.18765 10.2765 4.4268C10.5825 4.65543 10.8891 4.8834 11.2038 5.09627C11.5174 5.30782 11.8959 5.39848 12.2182 5.33804C14.8126 4.8591 17.3803 4.86304 19.8516 5.35184C20.1361 5.40637 20.4758 5.33016 20.7388 5.15211C21.2272 4.82033 21.7114 4.48133 22.1963 4.14166C22.9175 3.63644 23.6381 3.13187 24.3714 2.65292C25.3115 2.03864 26.3724 1.77781 27.496 1.50976C27.8879 2.65292 28.1632 3.87558 28.3165 5.15014L28.3257 5.22767C28.4581 6.33207 28.5952 7.47392 28.5052 8.53233C28.4158 9.57957 28.7717 10.2313 29.1758 10.8607C30.2228 12.492 30.7634 14.3992 30.8284 16.6895C30.8894 18.8182 30.6623 20.8759 30.1542 22.8061Z" fill="#F2994A"/>
</svg>
