<svg width="32" height="32" viewBox="0 0 32 32" fill="none" xmlns="http://www.w3.org/2000/svg">
<path d="M4.31999 0C3.14668 0 2.08 0.433919 1.28 1.24748C0.426687 2.11525 0 3.19996 0 4.33894C0 5.53214 0.479999 6.6169 1.28 7.43046C2.08 8.24402 3.19999 8.73216 4.26668 8.67794C4.26668 8.67794 4.31999 8.67794 4.37337 8.67794C5.44005 8.67794 6.45336 8.24402 7.25336 7.43046C8.05336 6.6169 8.53336 5.53214 8.53336 4.33894C8.58667 3.19996 8.10667 2.11519 7.30667 1.30163C6.50667 0.433856 5.43999 0 4.31999 0ZM6.50668 6.67118C5.91999 7.26781 5.11999 7.64745 4.26668 7.59324C3.46668 7.59324 2.61337 7.26781 2.02668 6.67118C1.38669 6.07455 1.06669 5.20678 1.06669 4.339C1.06669 3.47123 1.38669 2.65767 2.02668 2.00682C2.61337 1.41019 3.41337 1.08477 4.31999 1.08477C5.11999 1.08477 5.91999 1.41019 6.50668 2.00682C7.14667 2.65767 7.46667 3.47123 7.46667 4.339C7.46667 5.20678 7.14667 6.07455 6.50668 6.67118Z" fill="#F2994A"/>
<path d="M6.39996 9.7627H2.07998C1.22667 9.7627 0.533295 10.4678 0.533295 11.3898V30.3729C0.533295 31.2406 1.27998 32 2.13329 32H6.39996C7.25327 32 7.99996 31.2406 7.99996 30.4271V11.3898C7.99996 10.522 7.25327 9.7627 6.39996 9.7627ZM6.93327 30.4271C6.93327 30.6983 6.66659 30.9152 6.39996 30.9152H2.13329C1.8666 30.9152 1.59998 30.644 1.59998 30.3729V11.3898C1.59998 11.1186 1.81329 10.8475 2.07998 10.8475H6.39996C6.66665 10.8475 6.93327 11.1187 6.93327 11.3898V30.4271Z" fill="#F2994A"/>
<path d="M24.5333 9.22025H23.4133C21.3333 9.22025 19.36 10.1423 18.08 11.6067V10.8474C18.08 10.305 17.5467 9.7626 17.0133 9.7626H11.68C11.2 9.7626 10.6133 10.1965 10.6133 10.7931V31.0236C10.6133 31.6202 11.2 31.9998 11.68 31.9998H17.5467C18.0267 31.9998 18.6134 31.6202 18.6134 31.0236V19.3083C18.6134 17.5185 19.8934 16.1083 21.5467 16.1083C22.4 16.1083 23.2 16.4337 23.7867 17.0303C24.32 17.5185 24.5334 18.2778 24.5334 19.2541V30.9151C24.5334 31.4575 25.0667 31.9999 25.6001 31.9999H30.9334C31.4667 31.9999 32.0001 31.4575 32.0001 30.9151V16.9219C32 12.583 28.7467 9.22025 24.5333 9.22025ZM30.9333 30.8609L30.88 30.9151H25.6533L25.6 19.2542C25.6 17.9525 25.28 16.9762 24.5867 16.2711C23.7867 15.4576 22.72 15.0237 21.6 15.0237C19.36 15.0779 17.6 16.922 17.6 19.3084V30.9151H11.7333V10.8474H17.0133L17.0666 10.9016V14.3185L18.5066 12.8541L18.56 12.7999C19.6266 11.2813 21.4933 10.305 23.4666 10.305H24.5866C28.1599 10.305 30.9333 13.2338 30.9333 16.922V30.8609Z" fill="#F2994A"/>
</svg>
