<svg width="73" height="69" viewBox="0 0 73 69" fill="none" xmlns="http://www.w3.org/2000/svg">
<g clip-path="url(#clip0)">
<path d="M36.5 13.6031C25.9626 13.6102 17.4222 21.6825 17.4148 31.6426C17.509 38.144 20.8556 44.2191 26.4367 48.02V61.0478C26.4412 61.1968 26.4732 61.3439 26.5313 61.4825V61.5848C26.5547 61.6375 26.5819 61.6888 26.6125 61.7382L31.3737 68.4375C31.6256 68.7899 32.0464 69.0006 32.4963 69H40.3685C40.8184 69.0006 41.2392 68.7899 41.4911 68.4375L46.2523 61.7382C46.2829 61.6888 46.3101 61.6375 46.3335 61.5848V61.4825C46.3916 61.3439 46.4236 61.1968 46.4281 61.0478V48.02C52.0093 44.2191 55.3558 38.144 55.45 31.6426C55.4429 21.7322 46.9846 13.6803 36.5 13.6031ZM39.7192 66.4814H33.2808L30.3322 62.3391H42.6544L39.7192 66.4814ZM29.1554 59.7821V56.3941H43.8447L43.8582 59.7821H29.1554ZM44.4669 46.2685V46.3068C44.0849 46.5445 43.856 46.9485 43.8582 47.3808V53.8755H29.1554V47.3041C29.1576 46.8718 28.9287 46.4678 28.5467 46.2301C23.3683 42.9593 20.2226 37.4905 20.1335 31.6042C20.3934 23.0571 27.9347 16.3273 36.9773 16.5729C45.6548 16.8086 52.6307 23.4022 52.8801 31.6042C52.8043 37.5043 49.657 42.99 44.4669 46.2685Z" fill="#EEE7E7"/>
<path d="M37.041 19.3947C36.294 19.3947 35.6884 19.9671 35.6884 20.6732C35.6884 21.3792 36.294 21.9516 37.041 21.9516C42.6629 21.9587 47.2187 26.2648 47.2261 31.5787C47.2261 32.2847 47.8318 32.8572 48.5787 32.8572C49.3257 32.8572 49.9313 32.2847 49.9313 31.5787C49.9239 24.8525 44.1571 19.4017 37.041 19.3947Z" fill="#EEE7E7"/>
<path d="M13.7763 30.3002H4.03751C3.29053 30.3002 2.68491 30.8726 2.68491 31.5787C2.68491 32.2847 3.29053 32.8571 4.03751 32.8571H13.7763C14.5232 32.8571 15.1289 32.2847 15.1289 31.5787C15.1289 30.8726 14.5232 30.3002 13.7763 30.3002Z" fill="#EEE7E7"/>
<path d="M68.9625 30.3002H59.2238C58.4768 30.3002 57.8712 30.8726 57.8712 31.5787C57.8712 32.2847 58.4768 32.8571 59.2238 32.8571H68.9625C69.7095 32.8571 70.3151 32.2847 70.3151 31.5787C70.3151 30.8726 69.7095 30.3002 68.9625 30.3002Z" fill="#EEE7E7"/>
<path d="M21.5255 45.8849C21.0396 45.3486 20.1857 45.2861 19.6183 45.7454C19.5654 45.7882 19.516 45.8349 19.4707 45.8849V45.8594L12.5589 52.418C11.9915 52.8773 11.9254 53.6844 12.4113 54.2207C12.8972 54.757 13.7511 54.8195 14.3185 54.3602C14.3714 54.3174 14.4208 54.2707 14.4661 54.2207L21.3779 47.6876C21.9453 47.2283 22.0114 46.4213 21.5255 45.8849Z" fill="#EEE7E7"/>
<path d="M60.2935 8.94942C59.7871 8.5395 59.0403 8.5395 58.5339 8.94942L51.6221 15.4825C51.0917 15.9797 51.0882 16.7893 51.6142 17.2906C51.87 17.5345 52.2189 17.6708 52.5825 17.6687L52.5689 17.6559C52.9284 17.6578 53.274 17.5244 53.5293 17.2852L60.4411 10.7521C60.927 10.2158 60.8609 9.40872 60.2935 8.94942Z" fill="#EEE7E7"/>
<path d="M60.7094 52.6752C60.6333 52.5778 60.543 52.4912 60.4411 52.418L53.5293 45.8594C53.0433 45.3231 52.1895 45.2606 51.6221 45.7199C51.0547 46.1792 50.9886 46.9862 51.4745 47.5225C51.5198 47.5726 51.5692 47.6192 51.6221 47.6621L58.5339 54.1951C58.9779 54.7629 59.8249 54.8829 60.4257 54.4633C61.0264 54.0436 61.1534 53.243 60.7094 52.6752Z" fill="#EEE7E7"/>
<path d="M21.3779 15.4825L14.4661 8.94942C13.8987 8.49012 13.0448 8.55261 12.5589 9.08894C12.1252 9.56757 12.1252 10.2735 12.5589 10.7521L19.4707 17.2852C20.0381 17.7445 20.892 17.682 21.3779 17.1456C21.8116 16.667 21.8116 15.9611 21.3779 15.4825Z" fill="#EEE7E7"/>
<path d="M36.5 0C35.753 0 35.1474 0.572443 35.1474 1.27849V10.522C35.1249 11.2277 35.7121 11.8171 36.4588 11.8382C36.4725 11.8385 36.4862 11.8388 36.5 11.8388C37.247 11.8388 37.8526 11.2664 37.8526 10.5603V1.27849C37.8526 0.572443 37.247 0 36.5 0Z" fill="#EEE7E7"/>
</g>
<defs>
<clipPath id="clip0">
<rect width="73" height="69" fill="white"/>
</clipPath>
</defs>
</svg>
