<svg width="68" height="52" viewBox="0 0 68 52" fill="none" xmlns="http://www.w3.org/2000/svg">
<path d="M52.1635 47.8082H44.7577C44.4904 47.8082 44.2721 47.5943 44.2721 47.332V45.5644C44.2721 45.3025 44.0536 45.0883 43.7865 45.0883H33.4239C33.1566 45.0883 32.9381 45.3025 32.9381 45.5644V47.332C32.9381 47.5943 32.7196 47.8082 32.4523 47.8082H26.8849C26.6176 47.8082 26.3991 48.0224 26.3991 48.2844V50.3292C26.3991 50.5912 26.6176 50.8054 26.8849 50.8054H52.1631C52.4303 50.8054 52.6487 50.5912 52.6487 50.3292V48.2844C52.6491 48.0229 52.4306 47.8082 52.1635 47.8082Z" fill="#EEE7E7"/>
<path d="M64.6058 0H11.7603C9.92172 0 8.42597 1.46684 8.42597 3.27007C8.42597 3.27007 8.42597 9.50525 8.42597 11.7991C8.42597 12.9267 8.34064 13.0862 9.11207 13.0862C9.52178 13.0862 9.97552 13.0862 10.4349 13.0862C11.0823 13.0862 10.9495 12.9267 10.9495 11.7781C10.9495 9.48946 10.9495 3.27007 10.9495 3.27007C10.9495 2.83909 11.321 2.47482 11.7603 2.47482H64.6058C65.045 2.47482 65.4165 2.83909 65.4165 3.27007V35.1943H27.7409C27.7409 35.1943 26.4131 35.192 26.4131 36.8756C26.4131 37.8738 26.4131 39.8703 26.4131 40.8688C26.4131 42.5501 27.784 42.5501 27.784 42.5501H64.6058C66.4442 42.5501 67.9405 41.0834 67.9405 39.2805V3.27007C67.9405 1.46701 66.4446 0 64.6058 0ZM38.1832 39.7268C37.353 39.7268 36.6803 39.0671 36.6803 38.2535C36.6803 37.44 37.353 36.78 38.1832 36.78C39.0126 36.78 39.6855 37.44 39.6855 38.2535C39.6855 39.0671 39.0126 39.7268 38.1832 39.7268Z" fill="#EEE7E7"/>
<path d="M21.2693 16.0068H2.15203C0.965063 16.0068 0 16.9532 0 18.1171V48.9279C0 50.0916 0.965063 51.0385 2.15203 51.0385H21.2693C22.4555 51.0385 23.4213 50.0916 23.4213 48.9279V18.1171C23.4213 16.9532 22.4555 16.0068 21.2693 16.0068ZM9.35248 18.1591H14.0686C14.2936 18.1591 14.4765 18.3379 14.4765 18.5592C14.4765 18.78 14.2938 18.9589 14.0686 18.9589H9.35248C9.12715 18.9589 8.94483 18.78 8.94483 18.5592C8.94483 18.3379 9.12715 18.1591 9.35248 18.1591ZM11.682 49.5561C11.0669 49.5561 10.5682 49.0672 10.5682 48.464C10.5682 47.8608 11.0669 47.3718 11.682 47.3718C12.2972 47.3718 12.7958 47.8608 12.7958 48.464C12.7958 49.0672 12.2972 49.5561 11.682 49.5561ZM21.5722 46.3462C21.5722 46.6278 21.3423 46.8582 21.0616 46.8582H2.36022C2.07938 46.8582 1.84959 46.6278 1.84959 46.3462V20.7437C1.84959 20.4621 2.07955 20.2319 2.36022 20.2319H21.0616C21.3424 20.2319 21.5722 20.4622 21.5722 20.7437V46.3462Z" fill="#EEE7E7"/>
</svg>
