<svg width="70" height="73" viewBox="0 0 70 73" fill="none" xmlns="http://www.w3.org/2000/svg">
<g clip-path="url(#clip0)">
<path d="M36.7311 34.6965C36.1965 34.139 35.3311 34.139 34.7965 34.6965C34.2633 35.2525 34.2633 36.155 34.7965 36.7125C35.3311 37.2686 36.1965 37.2686 36.7311 36.7125C37.2643 36.155 37.2643 35.2525 36.7311 34.6965Z" fill="#EEE7E7"/>
<path d="M54.1314 16.549C51.4599 13.7632 47.1352 13.763 44.4636 16.549C41.7991 19.3277 41.7989 23.8503 44.464 26.6313C47.1295 29.4093 51.4662 29.4104 54.1314 26.631C56.8026 23.8453 56.8031 19.3351 54.1314 16.549ZM52.1979 24.6145C50.5992 26.2818 47.9969 26.2818 46.3975 24.6148C44.7985 22.9463 44.7984 20.2325 46.3972 18.5654C47.9999 16.8939 50.5949 16.8936 52.1979 18.5654C53.8006 20.2366 53.8009 22.9429 52.1979 24.6145Z" fill="#EEE7E7"/>
<path d="M69.5993 0.417609C69.3308 0.137729 68.9644 -0.0139739 68.5835 0.000996759C68.2744 0.0125456 60.9141 0.321084 52.1648 3.54605C45.1539 6.12757 39.3101 9.82361 34.7958 14.5315C33.7842 15.5865 32.7999 16.7051 31.858 17.8673C27.3944 15.1272 23.8176 15.9864 21.5564 17.2484C16.35 20.1541 13.1274 28.0438 13.1274 33.687C13.1279 34.2636 13.461 34.7836 13.9718 35.0041C14.1409 35.0773 14.3187 35.1128 14.4948 35.1128C14.8506 35.1128 15.2002 34.9678 15.4618 34.6952C18.2075 31.8318 21.5941 32.0109 22.7005 32.1626L23.1793 32.6619C22.237 35.0001 21.4779 37.3253 20.9212 39.5867C20.7202 40.4051 20.7881 41.2711 21.0868 42.0633C19.7705 42.6959 18.5005 43.6248 17.3947 44.778C13.8754 48.4482 13.1608 57.3927 13.1321 57.7717C13.1006 58.1876 13.2453 58.5971 13.5282 58.8921C13.7856 59.1604 14.1338 59.3097 14.4948 59.3097C14.5306 59.3097 14.5665 59.3082 14.6025 59.3052C14.9659 59.2754 23.5431 58.5302 27.0623 54.8601C28.1677 53.7074 29.0583 52.3831 29.6649 51.0106C30.4691 51.3404 31.2968 51.3811 32.0411 51.1822C34.2086 50.6017 36.4379 49.8104 38.6804 48.8276L39.1592 49.3269C39.3045 50.4808 39.4762 54.0126 36.7307 56.8757C36.3398 57.2835 36.2227 57.8967 36.4344 58.4294C36.6459 58.9622 37.1444 59.3095 37.6974 59.3095C43.1087 59.3095 50.674 55.9488 53.4604 50.5193C54.6704 48.1615 55.4943 44.4314 52.8669 39.7764C53.9807 38.7946 55.0535 37.768 56.0655 36.7126C60.58 32.0047 64.124 25.9105 66.5994 18.5997C69.692 9.47501 69.9877 1.79919 69.9988 1.47696C70.0125 1.08131 69.8677 0.697632 69.5993 0.417609ZM16.1842 30.6203C17.0335 26.334 19.5003 21.6305 22.8472 19.7624C25.0837 18.5143 27.5284 18.6366 30.1277 20.1204C27.9133 23.1576 25.9881 26.4298 24.3835 29.8852C24.3631 29.872 24.117 29.5494 23.6598 29.4419C23.4718 29.3975 19.8544 28.5861 16.1842 30.6203ZM25.1289 52.8436C23.249 54.8041 18.8391 55.838 16.0519 56.2602C16.4568 53.3533 17.4484 48.7546 19.3282 46.7943C20.3809 45.6965 21.6015 44.8641 22.8284 44.3953L27.4293 49.1933C26.9798 50.4728 26.1817 51.7458 25.1289 52.8436ZM31.3619 48.4199C30.9662 48.5255 30.5079 48.3704 30.1672 48.0156C28.3985 46.1711 27.7066 45.4495 27.4894 45.2233C27.0913 44.8081 26.115 43.7899 23.9586 41.5409C23.6176 41.1846 23.4688 40.7068 23.5699 40.2949C24.0078 38.5164 24.5805 36.6917 25.2769 34.8494L36.5829 46.6399C34.8161 47.3663 33.0666 47.9635 31.3619 48.4199ZM51.0499 49.1738C49.2586 52.664 44.7485 55.2366 40.6385 56.1222C41.9489 53.5505 42.2378 50.2768 41.759 48.2917C41.6479 47.8306 41.3594 47.5988 41.3433 47.5715C44.6564 45.8981 47.7939 43.8904 50.7066 41.5811C52.1294 44.2921 52.2466 46.8418 51.0499 49.1738ZM54.1323 34.6963C52.9004 35.9809 51.5738 37.2221 50.1894 38.3851C46.8614 41.1796 43.1984 43.5467 39.2904 45.431L26.4362 32.0261C28.243 27.9504 30.5128 24.1304 33.1922 20.6602C34.3084 19.2155 35.4984 17.8319 36.7298 16.5479C40.7801 12.3239 46.0074 8.96216 52.2708 6.54233L63.7267 18.4892C61.4066 25.0208 58.183 30.4722 54.1323 34.6963ZM64.7104 15.4821L55.1543 5.51648C60.3607 3.83007 64.89 3.19859 67.1508 2.97161C66.933 5.3297 66.3273 10.0532 64.7104 15.4821Z" fill="#EEE7E7"/>
<path d="M32.8631 58.8917C32.329 58.3349 31.4633 58.3352 30.9295 58.8919L27.0631 62.9255C26.5294 63.4824 26.5295 64.3852 27.0634 64.9418C27.5976 65.4984 28.4633 65.4984 28.997 64.9415L32.8634 60.908C33.3972 60.3511 33.397 59.4483 32.8631 58.8917Z" fill="#EEE7E7"/>
<path d="M13.5288 38.7285C12.9951 38.1716 12.1295 38.1716 11.5954 38.7283L7.72758 42.7604C7.19356 43.317 7.19343 44.2198 7.72717 44.7767C8.26079 45.3333 9.12635 45.3339 9.66065 44.777L13.5284 40.7449C14.0624 40.1883 14.0626 39.2855 13.5288 38.7285Z" fill="#EEE7E7"/>
<path d="M23.1961 60.9093C22.6625 60.3525 21.7966 60.3525 21.2626 60.9091L12.0013 70.5659C11.4673 71.1227 11.4673 72.0255 12.0012 72.5823C12.5348 73.139 13.4006 73.1393 13.9346 72.5824L23.196 62.9256C23.73 62.3688 23.73 61.466 23.1961 60.9093Z" fill="#EEE7E7"/>
<path d="M12.2586 60.9093C11.7248 60.3525 10.859 60.3525 10.3251 60.9091L1.0638 70.5659C0.529781 71.1227 0.529781 72.0255 1.06367 72.5823C1.59728 73.139 2.46312 73.1393 2.99714 72.5824L12.2585 62.9256C12.7925 62.3688 12.7925 61.466 12.2586 60.9093Z" fill="#EEE7E7"/>
<path d="M11.594 48.8098C11.0602 48.2532 10.1944 48.2532 9.66052 48.8099L0.40058 58.4681C-0.133305 59.0251 -0.133305 59.9277 0.400717 60.4846C0.934603 61.0414 1.8003 61.0414 2.33419 60.4845L11.5941 50.8263C12.128 50.2694 12.128 49.3667 11.594 48.8098Z" fill="#EEE7E7"/>
<path d="M42.5308 28.6466C41.9967 28.0898 41.1313 28.0898 40.5972 28.6466L38.664 30.6627C38.1301 31.2194 38.1301 32.1222 38.664 32.6791C39.198 33.2359 40.0635 33.2359 40.5976 32.6791L42.5308 30.6631C43.0646 30.1063 43.0646 29.2035 42.5308 28.6466Z" fill="#EEE7E7"/>
</g>
<defs>
<clipPath id="clip0">
<rect width="70" height="73" fill="white"/>
</clipPath>
</defs>
</svg>
